<mxfile host="app.diagrams.net" modified="2023-08-06T19:28:54.590Z" agent="Mozilla/5.0 (Windows NT 10.0; Win64; x64) AppleWebKit/537.36 (KHTML, like Gecko) Chrome/115.0.0.0 Safari/537.36" etag="m4iG7ZE99cPZ8o_RDez6" version="21.6.6" type="device">
  <diagram name="PÃ¡gina-1" id="Q9-z8deZlbmfM7GMXqm-">
    <mxGraphModel dx="1114" dy="602" grid="1" gridSize="10" guides="1" tooltips="1" connect="1" arrows="1" fold="1" page="1" pageScale="1" pageWidth="827" pageHeight="1169" math="0" shadow="0">
      <root>
        <mxCell id="0" />
        <mxCell id="1" parent="0" />
        <mxCell id="pulRfBkhWWKXgWT6FJKi-9" value="" style="rounded=0;whiteSpace=wrap;html=1;fillColor=#f5f5f5;fontColor=#333333;strokeColor=#666666;" vertex="1" parent="1">
          <mxGeometry x="80" y="50" width="460" height="280" as="geometry" />
        </mxCell>
        <mxCell id="pulRfBkhWWKXgWT6FJKi-4" style="edgeStyle=orthogonalEdgeStyle;rounded=0;orthogonalLoop=1;jettySize=auto;html=1;exitX=1;exitY=0.5;exitDx=0;exitDy=0;" edge="1" parent="1" source="pulRfBkhWWKXgWT6FJKi-1" target="pulRfBkhWWKXgWT6FJKi-2">
          <mxGeometry relative="1" as="geometry" />
        </mxCell>
        <mxCell id="pulRfBkhWWKXgWT6FJKi-5" style="edgeStyle=orthogonalEdgeStyle;rounded=0;orthogonalLoop=1;jettySize=auto;html=1;exitX=1;exitY=0.5;exitDx=0;exitDy=0;entryX=0;entryY=0.5;entryDx=0;entryDy=0;" edge="1" parent="1" source="pulRfBkhWWKXgWT6FJKi-1" target="pulRfBkhWWKXgWT6FJKi-3">
          <mxGeometry relative="1" as="geometry" />
        </mxCell>
        <mxCell id="pulRfBkhWWKXgWT6FJKi-1" value="RabbitMQ&lt;br&gt;&amp;lt;Consume&amp;gt;" style="rounded=1;whiteSpace=wrap;html=1;" vertex="1" parent="1">
          <mxGeometry x="109" y="125" width="120" height="60" as="geometry" />
        </mxCell>
        <mxCell id="pulRfBkhWWKXgWT6FJKi-2" value="Redis&lt;br&gt;&amp;lt;Cache&amp;gt;" style="rounded=1;whiteSpace=wrap;html=1;" vertex="1" parent="1">
          <mxGeometry x="319" y="125" width="120" height="60" as="geometry" />
        </mxCell>
        <mxCell id="pulRfBkhWWKXgWT6FJKi-7" style="edgeStyle=orthogonalEdgeStyle;rounded=0;orthogonalLoop=1;jettySize=auto;html=1;exitX=1;exitY=0.5;exitDx=0;exitDy=0;" edge="1" parent="1" source="pulRfBkhWWKXgWT6FJKi-3" target="pulRfBkhWWKXgWT6FJKi-6">
          <mxGeometry relative="1" as="geometry" />
        </mxCell>
        <mxCell id="pulRfBkhWWKXgWT6FJKi-10" style="edgeStyle=orthogonalEdgeStyle;rounded=0;orthogonalLoop=1;jettySize=auto;html=1;exitX=0.5;exitY=1;exitDx=0;exitDy=0;" edge="1" parent="1" source="pulRfBkhWWKXgWT6FJKi-3" target="pulRfBkhWWKXgWT6FJKi-8">
          <mxGeometry relative="1" as="geometry" />
        </mxCell>
        <mxCell id="pulRfBkhWWKXgWT6FJKi-3" value="Puppeter&lt;br&gt;&amp;lt;Crawler&amp;gt;" style="rounded=1;whiteSpace=wrap;html=1;" vertex="1" parent="1">
          <mxGeometry x="319" y="215" width="120" height="60" as="geometry" />
        </mxCell>
        <mxCell id="pulRfBkhWWKXgWT6FJKi-6" value="Portal Extrato Clube&lt;br&gt;&amp;lt;Website&amp;gt;" style="rounded=1;whiteSpace=wrap;html=1;fillColor=#ffe6cc;strokeColor=#d79b00;" vertex="1" parent="1">
          <mxGeometry x="599" y="175" width="120" height="60" as="geometry" />
        </mxCell>
        <mxCell id="pulRfBkhWWKXgWT6FJKi-8" value="Challenge Backend" style="rounded=1;whiteSpace=wrap;html=1;fillColor=#ffe6cc;strokeColor=#d79b00;" vertex="1" parent="1">
          <mxGeometry x="319" y="425" width="120" height="60" as="geometry" />
        </mxCell>
        <mxCell id="pulRfBkhWWKXgWT6FJKi-11" value="Node.js 18" style="text;html=1;strokeColor=none;fillColor=none;align=center;verticalAlign=middle;whiteSpace=wrap;rounded=0;" vertex="1" parent="1">
          <mxGeometry x="450" y="290" width="60" height="30" as="geometry" />
        </mxCell>
        <mxCell id="pulRfBkhWWKXgWT6FJKi-12" value="Crawler Challenge" style="text;html=1;strokeColor=none;fillColor=none;align=center;verticalAlign=middle;whiteSpace=wrap;rounded=0;fontSize=16;" vertex="1" parent="1">
          <mxGeometry x="230" y="60" width="150" height="30" as="geometry" />
        </mxCell>
      </root>
    </mxGraphModel>
  </diagram>
</mxfile>
